<?xml version="1.0" encoding="UTF-8" standalone="no"?>
<!-- Created with Inkscape (http://www.inkscape.org/) -->

<svg
   xmlns:dc="http://purl.org/dc/elements/1.1/"
   xmlns:cc="http://creativecommons.org/ns#"
   xmlns:rdf="http://www.w3.org/1999/02/22-rdf-syntax-ns#"
   xmlns:svg="http://www.w3.org/2000/svg"
   xmlns="http://www.w3.org/2000/svg"
   xmlns:sodipodi="http://sodipodi.sourceforge.net/DTD/sodipodi-0.dtd"
   xmlns:inkscape="http://www.inkscape.org/namespaces/inkscape"
   width="4cm"
   height="4cm"
   viewBox="0 0 40.000001 40.000001"
   version="1.1"
   id="svg8"
   inkscape:version="0.92.1 r15371"
   sodipodi:docname="recreation-attempt-traced.svg">
  <defs
     id="defs2" />
  <sodipodi:namedview
     id="base"
     pagecolor="#ffffff"
     bordercolor="#666666"
     borderopacity="1.0"
     inkscape:pageopacity="0.0"
     inkscape:pageshadow="2"
     inkscape:zoom="2.8284271"
     inkscape:cx="84.749279"
     inkscape:cy="81.901786"
     inkscape:document-units="mm"
     inkscape:current-layer="layer1"
     showgrid="true"
     inkscape:window-width="958"
     inkscape:window-height="1008"
     inkscape:window-x="-7"
     inkscape:window-y="0"
     inkscape:window-maximized="0"
     units="cm"
     inkscape:snap-global="false">
    <inkscape:grid
       type="xygrid"
       id="grid3684"
       units="mm"
       spacingx="0.5"
       spacingy="0.5" />
  </sodipodi:namedview>
  <metadata
     id="metadata5">
    <rdf:RDF>
      <cc:Work
         rdf:about="">
        <dc:format>image/svg+xml</dc:format>
        <dc:type
           rdf:resource="http://purl.org/dc/dcmitype/StillImage" />
        <dc:title></dc:title>
      </cc:Work>
    </rdf:RDF>
  </metadata>
  <g
     inkscape:label="Layer 1"
     inkscape:groupmode="layer"
     id="layer1"
     transform="translate(0,-256.99998)">
    <circle
       style="fill:#000000;fill-opacity:1;stroke:none;stroke-width:1.32291663;stroke-miterlimit:4;stroke-dasharray:none;stroke-opacity:1"
       id="path3688"
       cx="20"
       cy="276.99997"
       r="20" />
    <path
       style="fill:none;fill-opacity:1;stroke:none;stroke-width:1.05833328;stroke-miterlimit:4;stroke-dasharray:none;stroke-opacity:1"
       d="m 10.603073,273.57977 c 1.888928,-5.18979 7.62735,-7.86565 12.817128,-5.97673 5.189782,1.88893 7.865647,7.62736 5.976725,12.81713 -1.888928,5.18979 -7.627348,7.86565 -12.817126,5.97673 -5.189784,-1.88893 -7.8656475,-7.62736 -5.976727,-12.81713 z"
       id="textpath-rockford"
       inkscape:connector-curvature="0"
       sodipodi:nodetypes="sssss"
       inkscape:label="#path4501" />
    <circle
       style="fill:none;fill-opacity:1;stroke:#ff7f00;stroke-width:1.32291663;stroke-miterlimit:4;stroke-dasharray:none;stroke-opacity:1"
       id="path4497"
       cx="20"
       cy="276.99997"
       r="17.5" />
    <g
       aria-label="Rockford"
       style="font-style:normal;font-variant:normal;font-weight:bold;font-stretch:normal;font-size:7.05555582px;line-height:9.89541626px;font-family:'Tw Cen MT';-inkscape-font-specification:'Tw Cen MT Bold';letter-spacing:-0.26458332px;word-spacing:0px;fill:#ff7f00;fill-opacity:1;stroke:none;stroke-width:0.26458332px;stroke-linecap:butt;stroke-linejoin:miter;stroke-opacity:1"
       id="text4508">
      <path
         d="m 6.7998111,270.74763 0.7747591,-1.27072 q 0.3533044,-0.57947 0.8636688,-0.72828 0.5121579,-0.15176 1.0328002,0.16568 0.2970896,0.18114 0.5226597,0.53252 0.2273631,0.34844 0.1568621,0.87438 l 2.267178,-0.0985 -0.58107,0.95304 -2.1040366,0.089 -0.057389,0.0941 1.4942731,0.91106 -0.507539,0.83244 z m 1.1994325,-0.41866 1.0059868,0.61335 0.1093988,-0.17943 q 0.3963467,-0.65007 -0.1360615,-0.97468 -0.2176697,-0.13271 -0.448172,-0.0392 -0.2316503,0.0888 -0.4145796,0.38878 z"
         style="font-style:normal;font-variant:normal;font-weight:bold;font-stretch:normal;font-size:7.05555582px;line-height:9.89541626px;font-family:'Tw Cen MT';-inkscape-font-specification:'Tw Cen MT Bold';letter-spacing:-0.26458332px;fill:#ff7f00;fill-opacity:1;stroke-width:0.26458332px"
         id="path4542" />
      <path
         d="m 11.61943,268.99604 q -0.42507,-0.53789 -0.350933,-1.14974 0.07414,-0.61185 0.612028,-1.03692 0.500049,-0.39517 1.113469,-0.31349 0.613986,0.0768 1.019832,0.59041 0.414391,0.52437 0.347229,1.13949 -0.06446,0.61299 -0.57532,1.0167 -0.575733,0.45497 -1.183048,0.34212 -0.609451,-0.11555 -0.983257,-0.58857 z m 1.721792,-1.36065 q -0.185835,-0.23516 -0.478746,-0.2891 -0.292912,-0.0539 -0.498337,0.1084 -0.213535,0.16875 -0.237306,0.45538 -0.02377,0.28664 0.157791,0.51639 0.198652,0.25138 0.48886,0.30745 0.292911,0.0539 0.509149,-0.11694 0.205426,-0.16234 0.224925,-0.45438 0.01736,-0.29475 -0.166336,-0.5272 z"
         style="font-style:normal;font-variant:normal;font-weight:bold;font-stretch:normal;font-size:7.05555582px;line-height:9.89541626px;font-family:'Tw Cen MT';-inkscape-font-specification:'Tw Cen MT Bold';letter-spacing:-0.26458332px;fill:#ff7f00;fill-opacity:1;stroke-width:0.26458332px"
         id="path4544" />
      <path
         d="m 17.046457,266.3183 0.32151,0.82125 q -0.349361,0.35506 -0.628459,0.46432 -0.622357,0.24364 -1.200154,-0.004 -0.577798,-0.24736 -0.81893,-0.8633 -0.242388,-0.61915 -0.01692,-1.17727 0.228672,-0.55939 0.822156,-0.79173 0.413835,-0.16201 0.877359,-0.12149 l 0.303927,0.77634 q -0.427117,-0.0326 -0.725463,0.0842 -0.27589,0.10801 -0.379352,0.34459 -0.101511,0.23213 0.0065,0.50802 0.106751,0.27268 0.340131,0.3774 0.232124,0.10151 0.504806,-0.005 0.247018,-0.0967 0.592897,-0.4134 z"
         style="font-style:normal;font-variant:normal;font-weight:bold;font-stretch:normal;font-size:7.05555582px;line-height:9.89541626px;font-family:'Tw Cen MT';-inkscape-font-specification:'Tw Cen MT Bold';letter-spacing:-0.26458332px;fill:#ff7f00;fill-opacity:1;stroke-width:0.26458332px"
         id="path4546" />
      <path
         d="m 17.4296,262.5689 0.871642,-0.0772 0.246521,2.78307 0.769507,-1.23024 1.053519,-0.0933 -0.862818,1.38723 1.206593,1.5567 -0.988317,0.0875 -1.15751,-1.47112 0.138307,1.5614 -0.871642,0.0772 z"
         style="font-style:normal;font-variant:normal;font-weight:bold;font-stretch:normal;font-size:7.05555582px;line-height:9.89541626px;font-family:'Tw Cen MT';-inkscape-font-specification:'Tw Cen MT Bold';letter-spacing:-0.26458332px;fill:#ff7f00;fill-opacity:1;stroke-width:0.26458332px"
         id="path4548" />
      <path
         d="m 23.318577,262.86159 -0.138612,0.83608 q -0.175149,-0.16523 -0.317895,-0.18889 -0.18353,-0.0304 -0.321061,0.083 -0.134132,0.11396 -0.169067,0.32468 l -0.05409,0.32627 0.744316,0.1234 -0.131286,0.7919 -0.751114,-0.12452 -0.35329,2.13098 -0.870068,-0.14424 0.35329,-2.13099 -0.258302,-0.0428 0.131286,-0.7919 0.258302,0.0428 0.05916,-0.35686 q 0.123398,-0.74432 0.482864,-0.95362 0.36003,-0.21269 0.784868,-0.14226 0.336472,0.0558 0.550698,0.21701 z"
         style="font-style:normal;font-variant:normal;font-weight:bold;font-stretch:normal;font-size:7.05555582px;line-height:9.89541626px;font-family:'Tw Cen MT';-inkscape-font-specification:'Tw Cen MT Bold';letter-spacing:-0.26458332px;fill:#ff7f00;fill-opacity:1;stroke-width:0.26458332px"
         id="path4550" />
      <path
         d="m 23.386562,265.92667 q 0.286584,-0.6228 0.865505,-0.83424 0.578921,-0.21145 1.201722,0.0751 0.578987,0.26642 0.784418,0.85016 0.210002,0.58205 -0.06362,1.17669 -0.279383,0.60715 -0.858055,0.82629 -0.575542,0.22058 -1.167047,-0.0516 -0.666616,-0.30675 -0.8415,-0.89918 -0.173443,-0.59557 0.07858,-1.14326 z m 1.993591,0.91735 q 0.12529,-0.27228 0.04051,-0.55779 -0.08478,-0.28551 -0.322636,-0.39496 -0.247243,-0.11377 -0.51348,-0.005 -0.266238,0.10882 -0.388648,0.37484 -0.133931,0.29106 -0.05228,0.57513 0.08478,0.28552 0.335155,0.40073 0.237854,0.10945 0.506972,-0.006 0.270558,-0.11822 0.394408,-0.38737 z"
         style="font-style:normal;font-variant:normal;font-weight:bold;font-stretch:normal;font-size:7.05555582px;line-height:9.89541626px;font-family:'Tw Cen MT';-inkscape-font-specification:'Tw Cen MT Bold';letter-spacing:-0.26458332px;fill:#ff7f00;fill-opacity:1;stroke-width:0.26458332px"
         id="path4552" />
      <path
         d="m 28.486154,267.19624 -0.282393,0.33419 0.01053,0.009 q 0.242303,-0.0839 0.456146,-0.0701 0.218699,0.0134 0.331851,0.10902 0.06842,0.0578 0.114783,0.11504 l -0.622597,0.7368 q -0.07087,-0.0869 -0.152439,-0.15587 -0.207884,-0.17567 -0.448186,-0.12614 -0.235448,0.0491 -0.457804,0.31226 l -0.851624,1.00784 -0.684174,-0.57813 1.912263,-2.26303 z"
         style="font-style:normal;font-variant:normal;font-weight:bold;font-stretch:normal;font-size:7.05555582px;line-height:9.89541626px;font-family:'Tw Cen MT';-inkscape-font-specification:'Tw Cen MT Bold';letter-spacing:-0.26458332px;fill:#ff7f00;fill-opacity:1;stroke-width:0.26458332px"
         id="path4554" />
      <path
         d="m 32.35372,269.2027 0.500035,0.73485 -3.802379,2.58738 -0.488406,-0.71775 0.418689,-0.2849 -0.0078,-0.0114 q -0.675634,-0.007 -0.997361,-0.47977 -0.286842,-0.42154 -0.122924,-0.97062 0.165857,-0.54623 0.695626,-0.90672 0.52977,-0.36049 1.112204,-0.30678 0.585282,0.0518 0.877938,0.48186 0.166679,0.24495 0.189885,0.47501 0.02605,0.22813 -0.05601,0.54232 z m -2.388543,0.83775 q -0.122102,-0.17943 -0.393895,-0.22368 -0.271794,-0.0442 -0.553768,0.14764 -0.22501,0.15311 -0.29148,0.39836 -0.06453,0.2481 0.0692,0.44462 0.158926,0.23356 0.436416,0.27392 0.280338,0.0384 0.536678,-0.136 0.222162,-0.15117 0.2827,-0.41739 0.06533,-0.2653 -0.08585,-0.48747 z"
         style="font-style:normal;font-variant:normal;font-weight:bold;font-stretch:normal;font-size:7.05555582px;line-height:9.89541626px;font-family:'Tw Cen MT';-inkscape-font-specification:'Tw Cen MT Bold';letter-spacing:-0.26458332px;fill:#ff7f00;fill-opacity:1;stroke-width:0.26458332px"
         id="path4556" />
    </g>
    <path
       sodipodi:nodetypes="sssss"
       inkscape:connector-curvature="0"
       id="textpath-communityband"
       d="m 5.5620751,277.16398 c 6.7e-6,7.93303 6.4309779,14.36401 14.3640049,14.36401 7.933013,-10e-6 14.363997,-6.43097 14.363994,-14.36401 -10e-7,-7.93302 -6.430978,-14.36401 -14.363999,-14.364 -7.933016,0 -14.3640029,6.43096 -14.3639999,14.364 z"
       style="fill:none;fill-opacity:1;stroke:none;stroke-width:1.52019;stroke-miterlimit:4;stroke-dasharray:none;stroke-opacity:1"
       inkscape:label="#path4522" />
    <g
       aria-label="Community Band"
       style="font-style:normal;font-variant:normal;font-weight:bold;font-stretch:normal;font-size:6.70277786px;line-height:5.5562501px;font-family:'Tw Cen MT';-inkscape-font-specification:'Tw Cen MT Bold';letter-spacing:-0.26458332px;word-spacing:0px;fill:#ff8000;fill-opacity:1;stroke:none;stroke-width:0.26458332px;stroke-linecap:butt;stroke-linejoin:miter;stroke-opacity:1"
       id="text4526">
      <path
         d="m 9.9523018,280.23998 -1.0409781,0.14173 q 0.3242928,-0.7477 0.2536493,-1.26657 -0.070643,-0.51886 -0.4697511,-0.78162 -0.3991075,-0.26275 -1.0022911,-0.18063 -0.5707543,0.0777 -0.8699103,0.45205 -0.2959132,0.37389 -0.2212959,0.92195 0.065345,0.47995 0.5422065,1.09545 l -1.0312493,0.1404 q -0.3516966,-0.71511 -0.419691,-1.21452 -0.1170033,-0.85938 0.4304421,-1.54497 0.5506882,-0.68604 1.4587065,-0.80967 0.9242328,-0.12583 1.6460947,0.39686 0.7255462,0.52549 0.8447569,1.40108 0.07682,0.56427 -0.1206892,1.24846 z"
         style="font-style:normal;font-variant:normal;font-weight:bold;font-stretch:normal;font-size:6.70277786px;line-height:5.5562501px;font-family:'Tw Cen MT';-inkscape-font-specification:'Tw Cen MT Bold';letter-spacing:-0.26458332px;fill:#ff8000;fill-opacity:1;stroke-width:0.26458332px"
         id="path4559" />
      <path
         d="m 7.3352598,280.5927 q 0.6052644,-0.2405 1.1419825,-0.006 0.5367182,0.234 0.777219,0.83926 0.2235811,0.56268 -0.017708,1.09878 -0.2370389,0.53792 -0.8149295,0.76755 -0.5900567,0.23446 -1.1316493,0.006 -0.5403841,-0.2255 -0.7687995,-0.80035 -0.2574204,-0.64785 0.010578,-1.1699 0.2710395,-0.52326 0.8033071,-0.73476 z m 0.7698443,1.93746 q 0.264613,-0.10515 0.3934253,-0.35707 0.1288122,-0.25192 0.036963,-0.48308 -0.095475,-0.24028 -0.3498957,-0.33993 -0.2544204,-0.0996 -0.5129504,0.003 -0.2828623,0.1124 -0.4128831,0.36128 -0.1288122,0.25192 -0.032128,0.49525 0.09185,0.23115 0.3523531,0.32838 0.263545,0.096 0.5251166,-0.008 z"
         style="font-style:normal;font-variant:normal;font-weight:bold;font-stretch:normal;font-size:6.70277786px;line-height:5.5562501px;font-family:'Tw Cen MT';-inkscape-font-specification:'Tw Cen MT Bold';letter-spacing:-0.26458332px;fill:#ff8000;fill-opacity:1;stroke-width:0.26458332px"
         id="path4561" />
      <path
         d="m 10.006725,283.24071 -0.3517255,0.27809 q 0.067345,0.0219 0.2256792,0.0427 0.1583343,0.0208 0.2823373,0.0563 0.128601,0.036 0.255887,0.12312 0.131883,0.0876 0.206987,0.18264 0.11976,0.15147 0.151991,0.41387 0.0348,0.26037 -0.143967,0.59363 0.424255,-0.002 0.688919,0.10618 0.269261,0.10837 0.40323,0.27782 0.237491,0.30037 0.152876,0.70522 -0.08205,0.40282 -0.444042,0.68903 l -1.399201,1.10626 -0.5196387,-0.65724 1.2246217,-0.96823 q 0.182281,-0.14412 0.226349,-0.34168 0.04664,-0.19959 -0.06501,-0.34079 -0.133969,-0.16944 -0.372606,-0.18103 -0.238636,-0.0116 -0.433753,0.14267 l -1.1784096,0.9317 -0.5155794,-0.65211 1.1938133,-0.94387 q 0.1925505,-0.15224 0.2422912,-0.35846 0.054338,-0.20567 -0.059333,-0.34944 -0.1339694,-0.16945 -0.3777402,-0.17698 -0.2412033,-0.01 -0.4440232,0.1508 l -1.1578705,0.91545 -0.5236987,-0.66237 2.2079126,-1.74566 z"
         style="font-style:normal;font-variant:normal;font-weight:bold;font-stretch:normal;font-size:6.70277786px;line-height:5.5562501px;font-family:'Tw Cen MT';-inkscape-font-specification:'Tw Cen MT Bold';letter-spacing:-0.26458332px;fill:#ff8000;fill-opacity:1;stroke-width:0.26458332px"
         id="path4563" />
      <path
         d="m 12.709472,286.28678 -0.234904,0.38192 q 0.07076,-0.003 0.226624,-0.0374 0.155869,-0.0348 0.284513,-0.044 0.133147,-0.0103 0.2826,0.0278 0.153956,0.037 0.257103,0.10049 0.164477,0.10117 0.284817,0.33656 0.122055,0.23261 0.06854,0.60698 0.397911,-0.14718 0.683509,-0.13674 0.290101,0.009 0.474092,0.12253 0.326166,0.20061 0.385655,0.60991 0.0612,0.40651 -0.180559,0.79958 l -0.934472,1.51932 -0.713664,-0.43894 0.817878,-1.32976 q 0.121738,-0.19793 0.09532,-0.39861 -0.0247,-0.20347 -0.178031,-0.29777 -0.183992,-0.11317 -0.412108,-0.0421 -0.228116,0.071 -0.358428,0.2829 l -0.787014,1.27957 -0.708088,-0.43551 0.797302,-1.2963 q 0.128597,-0.20909 0.104533,-0.41985 -0.01956,-0.21183 -0.175676,-0.30785 -0.183991,-0.11316 -0.415537,-0.0366 -0.229831,0.0738 -0.365286,0.29404 l -0.773297,1.25727 -0.719239,-0.44237 1.47458,-2.39746 z"
         style="font-style:normal;font-variant:normal;font-weight:bold;font-stretch:normal;font-size:6.70277786px;line-height:5.5562501px;font-family:'Tw Cen MT';-inkscape-font-specification:'Tw Cen MT Bold';letter-spacing:-0.26458332px;fill:#ff8000;fill-opacity:1;stroke-width:0.26458332px"
         id="path4565" />
      <path
         d="m 15.605927,287.97674 0.822418,0.21846 -0.346178,1.30322 q -0.07478,0.28152 0.01715,0.50912 0.09593,0.22527 0.307861,0.28157 0.224584,0.0597 0.424308,-0.0803 0.203728,-0.14229 0.276829,-0.41749 l 0.351219,-1.32219 0.822418,0.21846 -0.420119,1.58157 q -0.133598,0.50294 -0.610247,0.74205 -0.472646,0.23679 -1.045176,0.0847 -0.607323,-0.16133 -0.880339,-0.59957 -0.273016,-0.43825 -0.122614,-1.00445 z"
         style="font-style:normal;font-variant:normal;font-weight:bold;font-stretch:normal;font-size:6.70277786px;line-height:5.5562501px;font-family:'Tw Cen MT';-inkscape-font-specification:'Tw Cen MT Bold';letter-spacing:-0.26458332px;fill:#ff8000;fill-opacity:1;stroke-width:0.26458332px"
         id="path4567" />
      <path
         d="m 19.088955,288.69335 -0.01016,0.33367 q 0.440797,-0.38932 0.911868,-0.37498 0.402373,0.0123 0.654017,0.35063 0.254915,0.33848 0.239274,0.85207 l -0.05201,1.70763 -0.850544,-0.0259 0.04792,-1.5735 q 0.0074,-0.24208 -0.121671,-0.41301 -0.125773,-0.17082 -0.315509,-0.1766 -0.228993,-0.007 -0.382678,0.20118 -0.153586,0.20488 -0.163748,0.53856 l -0.04244,1.39358 -0.837459,-0.0255 0.08568,-2.81334 z"
         style="font-style:normal;font-variant:normal;font-weight:bold;font-stretch:normal;font-size:6.70277786px;line-height:5.5562501px;font-family:'Tw Cen MT';-inkscape-font-specification:'Tw Cen MT Bold';letter-spacing:-0.26458332px;fill:#ff8000;fill-opacity:1;stroke-width:0.26458332px"
         id="path4569" />
      <path
         d="m 20.810893,287.65018 q -0.02846,-0.21083 0.1034,-0.38385 0.131861,-0.17302 0.345926,-0.20192 0.214066,-0.0289 0.387086,0.10297 0.173021,0.13186 0.201482,0.34268 0.0289,0.21407 -0.102962,0.38709 -0.131861,0.17302 -0.345926,0.20191 -0.214066,0.0289 -0.387086,-0.10296 -0.173021,-0.13186 -0.20192,-0.34592 z m 0.246274,1.01695 0.830315,-0.11209 0.376565,2.78934 -0.830315,0.11209 z"
         style="font-style:normal;font-variant:normal;font-weight:bold;font-stretch:normal;font-size:6.70277786px;line-height:5.5562501px;font-family:'Tw Cen MT';-inkscape-font-specification:'Tw Cen MT Bold';letter-spacing:-0.26458332px;fill:#ff8000;fill-opacity:1;stroke-width:0.26458332px"
         id="path4571" />
      <path
         d="m 21.965522,287.56319 0.814353,-0.19702 0.227033,0.93842 0.391271,-0.0947 0.180856,0.74756 -0.391271,0.0947 0.481001,1.98816 -0.814354,0.19702 -0.481001,-1.98817 -0.311745,0.0754 -0.180856,-0.74756 0.311745,-0.0754 z"
         style="font-style:normal;font-variant:normal;font-weight:bold;font-stretch:normal;font-size:6.70277786px;line-height:5.5562501px;font-family:'Tw Cen MT';-inkscape-font-specification:'Tw Cen MT Bold';letter-spacing:-0.26458332px;fill:#ff8000;fill-opacity:1;stroke-width:0.26458332px"
         id="path4573" />
      <path
         d="m 22.988722,288.42746 0.821327,-0.35176 1.387361,1.186 0.01762,-1.78773 0.788234,-0.33759 -0.01567,4.4109 -0.800268,0.34274 0.01069,-1.57115 z"
         style="font-style:normal;font-variant:normal;font-weight:bold;font-stretch:normal;font-size:6.70277786px;line-height:5.5562501px;font-family:'Tw Cen MT';-inkscape-font-specification:'Tw Cen MT Bold';letter-spacing:-0.26458332px;fill:#ff8000;fill-opacity:1;stroke-width:0.26458332px"
         id="path4575" />
      <path
         d="m 25.705097,285.51751 0.926481,-0.84432 q 0.580563,-0.52909 1.013887,-0.48118 0.433324,0.0479 0.728729,0.37205 0.187383,0.20562 0.240041,0.41888 0.05045,0.21085 0.01097,0.51251 0.432598,-0.18612 0.770877,-0.087 0.338495,0.0945 0.567764,0.34605 0.399016,0.43784 0.321714,0.95552 -0.0773,0.51768 -0.621579,1.01369 l -1.064365,0.96999 z m 1.171777,-0.0893 0.632695,0.69425 0.157235,-0.14329 q 0.174169,-0.15872 0.193498,-0.3756 0.01712,-0.2193 -0.130578,-0.38137 -0.119044,-0.13063 -0.316723,-0.11431 -0.199884,0.0139 -0.374053,0.17262 z m 1.124301,1.23369 0.795828,0.87327 0.246739,-0.22486 q 0.566049,-0.51586 0.191282,-0.92709 -0.202815,-0.22255 -0.44872,-0.21542 -0.248109,0.005 -0.504524,0.23838 z"
         style="font-style:normal;font-variant:normal;font-weight:bold;font-stretch:normal;font-size:6.70277786px;line-height:5.5562501px;font-family:'Tw Cen MT';-inkscape-font-specification:'Tw Cen MT Bold';letter-spacing:-0.26458332px;fill:#ff8000;fill-opacity:1;stroke-width:0.26458332px"
         id="path4577" />
      <path
         d="m 32.033337,284.91222 -0.395795,-0.27351 -0.0074,0.0108 q 0.119914,0.32156 0.111422,0.55837 -0.01119,0.23494 -0.178644,0.47727 -0.280958,0.40656 -0.82821,0.45008 -0.547252,0.0435 -1.048054,-0.30256 -0.495417,-0.34236 -0.637879,-0.89036 -0.145154,-0.54985 0.143247,-0.96719 0.137688,-0.19924 0.336318,-0.2967 0.19863,-0.0974 0.515292,-0.14119 l -0.320406,-0.22142 0.476327,-0.68927 2.310151,1.59644 z m -2.021834,-0.64927 q -0.14141,0.20462 -0.07206,0.45544 0.06666,0.24896 0.314364,0.42014 0.231554,0.16001 0.463567,0.12939 0.231181,-0.0352 0.378172,-0.24789 0.141409,-0.20463 0.08033,-0.46166 -0.06377,-0.25889 -0.29532,-0.41891 -0.215398,-0.14885 -0.472037,-0.11137 -0.259332,0.0356 -0.39702,0.23486 z"
         style="font-style:normal;font-variant:normal;font-weight:bold;font-stretch:normal;font-size:6.70277786px;line-height:5.5562501px;font-family:'Tw Cen MT';-inkscape-font-specification:'Tw Cen MT Bold';letter-spacing:-0.26458332px;fill:#ff8000;fill-opacity:1;stroke-width:0.26458332px"
         id="path4579" />
      <path
         d="m 30.498588,281.8466 0.31056,0.12245 q -0.21723,-0.54652 -0.04435,-0.98496 0.147665,-0.3745 0.551223,-0.49682 0.404757,-0.12537 0.882776,0.0631 l 1.589335,0.62667 -0.312137,0.79163 -1.464503,-0.57746 q -0.225308,-0.0888 -0.429809,-0.0252 -0.203301,0.0606 -0.272932,0.23715 -0.08404,0.21313 0.05984,0.42818 0.140837,0.21384 0.451397,0.3363 l 1.297044,0.51142 -0.307336,0.77945 -2.618445,-1.03246 z"
         style="font-style:normal;font-variant:normal;font-weight:bold;font-stretch:normal;font-size:6.70277786px;line-height:5.5562501px;font-family:'Tw Cen MT';-inkscape-font-specification:'Tw Cen MT Bold';letter-spacing:-0.26458332px;fill:#ff8000;fill-opacity:1;stroke-width:0.26458332px"
         id="path4581" />
      <path
         d="m 29.885767,278.14286 0.121959,-0.83554 4.323428,0.63107 -0.119122,0.8161 -0.476063,-0.0695 -0.0019,0.013 q 0.468459,0.43882 0.389989,0.97642 -0.06996,0.4793 -0.537365,0.75836 -0.466932,0.27583 -1.069297,0.18791 -0.602365,-0.0879 -0.975559,-0.49961 -0.376433,-0.41216 -0.305053,-0.90118 0.04065,-0.27851 0.172175,-0.45446 0.128284,-0.17642 0.387528,-0.34364 z m 2.210009,0.9477 q -0.02978,0.20403 0.132055,0.40957 0.161835,0.20553 0.482449,0.25233 0.255843,0.0373 0.459891,-0.0916 0.20452,-0.13222 0.237137,-0.35568 0.03876,-0.26556 -0.129551,-0.47204 -0.17155,-0.20695 -0.463018,-0.24949 -0.252604,-0.0369 -0.465965,0.11059 -0.216126,0.14375 -0.252998,0.39635 z"
         style="font-style:normal;font-variant:normal;font-weight:bold;font-stretch:normal;font-size:6.70277786px;line-height:5.5562501px;font-family:'Tw Cen MT';-inkscape-font-specification:'Tw Cen MT Bold';letter-spacing:-0.26458332px;fill:#ff8000;fill-opacity:1;stroke-width:0.26458332px"
         id="path4583" />
    </g>
    <path
       style="fill:#ff8000;fill-opacity:1;fill-rule:evenodd;stroke:#000000;stroke-width:0.26458332px;stroke-linecap:butt;stroke-linejoin:miter;stroke-opacity:1"
       d="m 24.705469,271.66613 c 1.916852,1.41176 3.24682,4.63685 0.336403,8.93633 0,0 0.490419,-4.703 -2.089269,-7.1504 z"
       id="path-note"
       inkscape:connector-curvature="0"
       sodipodi:nodetypes="cccc"
       inkscape:label="#path4531" />
    <path
       style="fill:none;fill-rule:evenodd;stroke:#ff7f00;stroke-width:1;stroke-linecap:butt;stroke-linejoin:miter;stroke-miterlimit:4;stroke-dasharray:none;stroke-opacity:1"
       d="M 24.325131,271.61652 17.874736,283.2844"
       id="path4538"
       inkscape:connector-curvature="0"
       sodipodi:nodetypes="cc" />
    <ellipse
       style="fill:none;fill-opacity:1;stroke:#ff7f00;stroke-width:1;stroke-miterlimit:4;stroke-dasharray:none;stroke-opacity:1"
       id="path4540"
       cx="132.90825"
       cy="248.8678"
       rx="3.0427084"
       ry="1.8520833"
       transform="rotate(25)" />
  </g>
</svg>
